<svg width="250" height="34" viewBox="0 0 250 34" fill="none" xmlns="http://www.w3.org/2000/svg">
<rect width="250" height="34" rx="7" fill="white"/>
<path d="M38.6643 14.9091C38.6089 14.4413 38.3843 14.0781 37.9903 13.8196C37.5964 13.5611 37.1132 13.4318 36.5408 13.4318C36.1222 13.4318 35.756 13.4995 35.442 13.6349C35.1312 13.7704 34.8881 13.9566 34.7126 14.1935C34.5403 14.4305 34.4541 14.6998 34.4541 15.0014C34.4541 15.2538 34.5141 15.4708 34.6342 15.6523C34.7573 15.8308 34.9142 15.9801 35.105 16.1001C35.2959 16.2171 35.4959 16.314 35.7052 16.391C35.9145 16.4648 36.1068 16.5249 36.2822 16.571L37.2425 16.8295C37.4887 16.8942 37.7626 16.9834 38.0642 17.0973C38.3689 17.2112 38.6597 17.3666 38.9367 17.5636C39.2168 17.7575 39.4476 18.0067 39.6292 18.3114C39.8108 18.6161 39.9016 18.9901 39.9016 19.4332C39.9016 19.9441 39.7677 20.4058 39.4999 20.8182C39.2352 21.2306 38.8475 21.5584 38.3366 21.8015C37.8288 22.0446 37.2117 22.1662 36.4854 22.1662C35.8083 22.1662 35.222 22.0569 34.7265 21.8384C34.2341 21.6199 33.8463 21.3152 33.5631 20.9244C33.2831 20.5335 33.1246 20.0795 33.0876 19.5625H34.2695C34.3002 19.9195 34.4203 20.215 34.6295 20.4489C34.8419 20.6797 35.1097 20.852 35.4328 20.9659C35.759 21.0767 36.1099 21.1321 36.4854 21.1321C36.9224 21.1321 37.3148 21.0613 37.6626 20.9197C38.0103 20.7751 38.2858 20.575 38.4889 20.3196C38.692 20.0611 38.7936 19.7595 38.7936 19.4148C38.7936 19.1009 38.7059 18.8454 38.5305 18.6484C38.355 18.4515 38.1242 18.2914 37.838 18.1683C37.5518 18.0452 37.2425 17.9375 36.9101 17.8452L35.7467 17.5128C35.0081 17.3004 34.4233 16.9973 33.9925 16.6033C33.5616 16.2094 33.3462 15.6939 33.3462 15.0568C33.3462 14.5275 33.4893 14.0658 33.7755 13.6719C34.0648 13.2749 34.4526 12.9671 34.9388 12.7486C35.4282 12.527 35.9745 12.4162 36.5777 12.4162C37.1871 12.4162 37.7287 12.5254 38.2027 12.744C38.6767 12.9594 39.0521 13.2549 39.3291 13.6303C39.6092 14.0058 39.7569 14.4321 39.7723 14.9091H38.6643ZM44.6092 22.1477C43.926 22.1477 43.3366 21.9969 42.8411 21.6953C42.3487 21.3906 41.9686 20.9659 41.7008 20.4212C41.4361 19.8733 41.3038 19.2363 41.3038 18.5099C41.3038 17.7836 41.4361 17.1435 41.7008 16.5895C41.9686 16.0324 42.341 15.5985 42.818 15.2876C43.2981 14.9737 43.8583 14.8168 44.4984 14.8168C44.8677 14.8168 45.2324 14.8783 45.5925 15.0014C45.9526 15.1245 46.2804 15.3246 46.5758 15.6016C46.8713 15.8755 47.1067 16.2386 47.2821 16.6911C47.4576 17.1435 47.5453 17.7005 47.5453 18.3622V18.8239H42.0794V17.8821H46.4373C46.4373 17.482 46.3573 17.125 46.1973 16.8111C46.0403 16.4972 45.8156 16.2494 45.5233 16.0678C45.234 15.8862 44.8924 15.7955 44.4984 15.7955C44.0645 15.7955 43.689 15.9032 43.372 16.1186C43.0581 16.331 42.8165 16.608 42.6472 16.9496C42.4779 17.2912 42.3933 17.6574 42.3933 18.0483V18.6761C42.3933 19.2116 42.4856 19.6656 42.6703 20.038C42.858 20.4073 43.1181 20.6889 43.4505 20.8828C43.7829 21.0736 44.1691 21.169 44.6092 21.169C44.8954 21.169 45.154 21.129 45.3848 21.049C45.6187 20.9659 45.8203 20.8428 45.9895 20.6797C46.1588 20.5135 46.2896 20.3073 46.3819 20.0611L47.4345 20.3565C47.3237 20.7135 47.1375 21.0275 46.8759 21.2983C46.6143 21.5661 46.2911 21.7753 45.9064 21.9261C45.5217 22.0739 45.0893 22.1477 44.6092 22.1477ZM51.2893 22.1662C50.8399 22.1662 50.4321 22.0816 50.0659 21.9123C49.6996 21.7399 49.4088 21.4922 49.1934 21.169C48.9779 20.8428 48.8702 20.4489 48.8702 19.9872C48.8702 19.581 48.9502 19.2517 49.1103 18.9993C49.2703 18.7438 49.4842 18.5438 49.752 18.3991C50.0197 18.2545 50.3152 18.1468 50.6383 18.076C50.9646 18.0021 51.2923 17.9437 51.6216 17.9006C52.0525 17.8452 52.4018 17.8036 52.6696 17.7759C52.9404 17.7451 53.1374 17.6944 53.2605 17.6236C53.3867 17.5528 53.4498 17.4297 53.4498 17.2543V17.2173C53.4498 16.7618 53.3251 16.4079 53.0758 16.1555C52.8296 15.9032 52.4557 15.777 51.954 15.777C51.4339 15.777 51.0261 15.8909 50.7307 16.1186C50.4352 16.3464 50.2275 16.5895 50.1074 16.848L49.0733 16.4787C49.258 16.0478 49.5042 15.7124 49.812 15.4723C50.1228 15.2292 50.4614 15.0599 50.8276 14.9645C51.1969 14.866 51.5601 14.8168 51.9171 14.8168C52.1448 14.8168 52.4064 14.8445 52.7019 14.8999C53.0004 14.9522 53.2882 15.0614 53.5652 15.2276C53.8452 15.3938 54.0776 15.6446 54.2623 15.9801C54.4469 16.3156 54.5393 16.7649 54.5393 17.3281V22H53.4498V21.0398H53.3944C53.3205 21.1937 53.1974 21.3583 53.025 21.5337C52.8527 21.7092 52.6234 21.8584 52.3372 21.9815C52.051 22.1046 51.7017 22.1662 51.2893 22.1662ZM51.4554 21.1875C51.8863 21.1875 52.2495 21.1029 52.5449 20.9336C52.8435 20.7643 53.0681 20.5458 53.2189 20.2781C53.3728 20.0103 53.4498 19.7287 53.4498 19.4332V18.4361C53.4036 18.4915 53.302 18.5423 53.1451 18.5884C52.9912 18.6315 52.8127 18.67 52.6096 18.7038C52.4095 18.7346 52.2141 18.7623 52.0233 18.7869C51.8355 18.8085 51.6832 18.8269 51.5662 18.8423C51.2831 18.8793 51.0184 18.9393 50.7722 19.0224C50.5291 19.1024 50.3321 19.224 50.1813 19.3871C50.0336 19.5471 49.9597 19.7656 49.9597 20.0426C49.9597 20.4212 50.0997 20.7074 50.3798 20.9013C50.6629 21.0921 51.0215 21.1875 51.4554 21.1875ZM56.5278 22V14.9091H57.5804V15.9801H57.6542C57.7835 15.6293 58.0174 15.3446 58.3559 15.1261C58.6945 14.9076 59.0761 14.7983 59.5008 14.7983C59.5808 14.7983 59.6809 14.7998 59.8009 14.8029C59.9209 14.806 60.0117 14.8106 60.0733 14.8168V15.9247C60.0363 15.9155 59.9517 15.9016 59.8193 15.8832C59.6901 15.8616 59.5531 15.8509 59.4085 15.8509C59.0638 15.8509 58.756 15.9232 58.4852 16.0678C58.2174 16.2094 58.0051 16.4064 57.8481 16.6587C57.6942 16.908 57.6173 17.1927 57.6173 17.5128V22H56.5278ZM64.0296 22.1477C63.3648 22.1477 62.7924 21.9908 62.3122 21.6768C61.8321 21.3629 61.4628 20.9305 61.2043 20.3796C60.9458 19.8287 60.8165 19.1993 60.8165 18.4915C60.8165 17.7713 60.9488 17.1358 61.2135 16.5849C61.4813 16.0309 61.8537 15.5985 62.3307 15.2876C62.8108 14.9737 63.371 14.8168 64.0111 14.8168C64.5097 14.8168 64.959 14.9091 65.3591 15.0938C65.7592 15.2784 66.087 15.5369 66.3424 15.8693C66.5979 16.2017 66.7564 16.5895 66.8179 17.0327H65.7284C65.6453 16.7095 65.4607 16.4233 65.1745 16.174C64.8913 15.9216 64.5097 15.7955 64.0296 15.7955C63.6049 15.7955 63.2325 15.9062 62.9124 16.1278C62.5954 16.3464 62.3476 16.6557 62.1691 17.0558C61.9937 17.4528 61.906 17.919 61.906 18.4545C61.906 19.0024 61.9922 19.4794 62.1645 19.8857C62.3399 20.2919 62.5862 20.6074 62.9032 20.832C63.2232 21.0567 63.5987 21.169 64.0296 21.169C64.3127 21.169 64.5697 21.1198 64.8005 21.0213C65.0314 20.9228 65.2268 20.7812 65.3868 20.5966C65.5469 20.4119 65.6607 20.1903 65.7284 19.9318H66.8179C66.7564 20.3504 66.604 20.7274 66.3609 21.0629C66.1208 21.3952 65.8023 21.6599 65.4053 21.8569C65.0113 22.0508 64.5528 22.1477 64.0296 22.1477ZM69.5001 17.7344V22H68.4106V12.5455H69.5001V16.017H69.5924C69.7586 15.6508 70.0079 15.36 70.3403 15.1445C70.6758 14.926 71.122 14.8168 71.6791 14.8168C72.1623 14.8168 72.5854 14.9137 72.9486 15.1076C73.3118 15.2984 73.5934 15.5923 73.7934 15.9893C73.9965 16.3833 74.0981 16.8849 74.0981 17.4943V22H73.0086V17.5682C73.0086 17.005 72.8624 16.5695 72.5701 16.2617C72.2808 15.9509 71.8791 15.7955 71.3652 15.7955C71.0081 15.7955 70.6881 15.8709 70.4049 16.0217C70.1249 16.1725 69.9033 16.3925 69.7402 16.6818C69.5801 16.9711 69.5001 17.322 69.5001 17.7344Z" fill="#898989"/>
<g clip-path="url(#clip0_1_158)">
<path d="M16.3324 22.0625C19.63 22.0625 22.3031 19.4182 22.3031 16.1562C22.3031 12.8943 19.63 10.25 16.3324 10.25C13.0349 10.25 10.3618 12.8943 10.3618 16.1562C10.3618 19.4182 13.0349 22.0625 16.3324 22.0625Z" stroke="#898989" stroke-linecap="round" stroke-linejoin="round"/>
<path d="M20.5541 20.3329L24.0086 23.7501" stroke="#898989" stroke-linecap="round" stroke-linejoin="round"/>
</g>
<defs>
<clipPath id="clip0_1_158">
<rect width="18.1964" height="18" fill="white" transform="translate(8.08734 8)"/>
</clipPath>
</defs>
</svg>
